<?xml version="1.0" encoding="UTF-8"?>
<svg width="100px" height="29px" viewBox="0 0 100 29" version="1.1" xmlns="http://www.w3.org/2000/svg" xmlns:xlink="http://www.w3.org/1999/xlink">
    <!-- Generator: Sketch 61.2 (89653) - https://sketch.com -->
    <title>Aasaan_logo</title>
    <desc>Created with Sketch.</desc>
    <g id="Page-1" stroke="none" stroke-width="1" fill="none" fill-rule="evenodd">
        <g id="Light" transform="translate(-642.000000, -16.000000)">
            <g id="Aasaan_logo" transform="translate(642.000000, 16.000000)">
                <g id="Clipped">
                    <g id="Group">
                        <g transform="translate(0.066391, 0.023088)" id="Path">
                            <g transform="translate(3.476001, 23.191919)">
                                <polygon fill="#FDCE3D" points="1.57772181e-30 0.0606060606 92.9628154 0.0606060606 7.42489964 4.90909091"></polygon>
                                <polygon fill="#FDD933" points="0 0.0606060606 46.4814077 0.0606060606 7.42489964 4.90909091"></polygon>
                                <polygon fill="#FDE13D" points="0 0.0606060606 23.2407038 0.0606060606 7.42489964 4.90909091"></polygon>
                            </g>
                            <g fill="#000000">
                                <g>
                                    <path d="M1.92820268,9.83023652 C0.651909303,10.8278671 0.0137626121,12.2411772 0.0137626121,14.1533026 C0.0137626121,16.2316997 0.651909303,17.7281457 1.92820268,18.7257763 C3.20449606,19.7234069 5.02777232,20.2222222 7.48919527,20.2222222 C8.4008334,20.2222222 9.31247153,20.1390863 10.1329458,19.9728146 C10.6799287,19.8065428 11.2269116,19.640271 11.6827307,19.3908634 L11.6827307,16.2316997 C10.8622563,16.4811074 9.76829059,16.6473791 8.4008334,16.6473791 C7.12454002,16.6473791 6.21290189,16.4811074 5.5747552,16.0654279 C4.93660851,15.6497485 4.66311707,15.0677973 4.66311707,14.2364385 C4.66311707,13.4882155 4.93660851,12.9062643 5.39242757,12.4905849 C5.84824664,12.0749054 6.66872096,11.9086337 7.58035908,11.9086337 L11.7738945,11.9086337 L11.7738945,8.41692647 L7.58035908,8.41692647 C5.02777232,8.33379058 3.20449606,8.83260589 1.92820268,9.83023652 L1.92820268,9.83023652 Z"></path>
                                    <path d="M13.5339142,1.93232739 C12.173899,0.685289105 10.3338783,0.0202020202 7.93385142,0.0202020202 C6.49383527,0.0202020202 5.13382002,0.269609677 3.93380657,0.768424991 C2.73379311,1.2672403 1.77378235,1.93232739 1.05377427,2.84682213 L3.93380657,5.3408987 C5.05381913,4.42640396 6.41383438,4.01072453 7.93385142,4.01072453 C9.05386398,4.01072453 9.93387385,4.34326807 10.573881,4.92521927 C11.2138882,5.50717047 11.5338918,6.42166521 11.5338918,7.50243172 L11.5338918,20.2222222 L17.2355323,20.2222222 C17.2355323,20.2222222 16.6003224,20.1229211 16.0745294,19.5765657 C15.5487363,19.0302102 15.5339366,18.489697 15.5339366,18.489697 L15.5339366,7.33615995 C15.5339366,5.00835516 14.8939295,3.17936567 13.5339142,1.93232739 Z"></path>
                                </g>
                                <g transform="translate(16.894981, 0.000000)">
                                    <path d="M1.97324714,9.83023652 C0.696953757,10.8278671 0.0588070669,12.2411772 0.0588070669,14.1533026 C0.0588070669,16.2316997 0.696953757,17.7281457 1.97324714,18.7257763 C3.24954052,19.7234069 5.07281678,20.2222222 7.53423973,20.2222222 C8.44587786,20.2222222 9.35751598,20.1390863 10.1779903,19.9728146 C10.7249732,19.8065428 11.2719561,19.640271 11.7277751,19.3908634 L11.7277751,16.2316997 C10.9073008,16.4811074 9.81333505,16.6473791 8.44587786,16.6473791 C7.16958447,16.6473791 6.25794635,16.4811074 5.61979965,16.0654279 C4.98165296,15.6497485 4.70816153,15.0677973 4.70816153,14.2364385 C4.70816153,13.4882155 4.98165296,12.9062643 5.43747203,12.4905849 C5.89329109,12.0749054 6.71376541,11.9086337 7.62540354,11.9086337 L11.8189389,11.9086337 L11.8189389,8.41692647 L7.62540354,8.41692647 C5.07281678,8.33379058 3.24954052,8.83260589 1.97324714,9.83023652 L1.97324714,9.83023652 Z"></path>
                                    <path d="M13.5789587,1.93232739 C12.2189434,0.685289105 10.3789228,0.0202020202 7.97889587,0.0202020202 C6.53887973,0.0202020202 5.17886448,0.269609677 3.97885102,0.768424991 C2.77883757,1.2672403 1.8188268,1.93232739 1.09881873,2.84682213 L3.97885102,5.3408987 C5.09886358,4.42640396 6.45887883,4.01072453 7.97889587,4.01072453 C9.09890843,4.01072453 9.9789183,4.34326807 10.6189255,4.92521927 C11.2589327,5.50717047 11.5789362,6.42166521 11.5789362,7.50243172 L11.5789362,20.2222222 L15.5789811,20.2222222 L15.5789811,7.33615995 C15.5789811,5.00835516 14.9389739,3.17936567 13.5789587,1.93232739 L13.5789587,1.93232739 Z"></path>
                                </g>
                                <path d="M41.1691241,20.2222222 C39.6967999,20.2222222 38.2980919,19.9728146 37.0466163,19.4739993 C35.7951407,18.9751839 34.6908976,18.3100969 33.7338869,17.3124662 L36.1632218,13.9038949 C38.003627,15.317205 39.7704161,16.0654279 41.5372051,16.0654279 C42.7886807,16.0654279 43.6720752,15.8991562 44.3346211,15.4834767 C44.997167,15.1509332 45.2916318,14.568982 45.2916318,13.9038949 C45.2916318,13.2388078 45.0707832,12.8231284 44.6290859,12.4905849 C44.1873887,12.2411772 43.6720752,12.0749054 42.9359131,11.9917695 C42.2733672,11.9086337 41.4635889,11.8254978 40.7274268,11.7423619 C39.9912647,11.659226 39.2551026,11.5760901 38.5925567,11.4098183 C37.8563946,11.2435466 37.2674649,10.9941389 36.6785353,10.6615954 C36.0896056,10.3290518 35.6479083,9.74710064 35.2798273,9.08201355 C34.9117462,8.41692647 34.7645138,7.41929584 34.7645138,6.25539344 C34.7645138,4.26013219 35.3534435,2.68055036 36.604919,1.59978385 C37.7827784,0.519017333 39.5495674,0.0202020202 41.9052862,0.0202020202 C43.230378,0.0202020202 44.4818535,0.269609677 45.6597129,0.685289105 C46.8375722,1.10096853 47.9418154,1.76605562 48.9724423,2.59741447 L46.5431074,5.9228499 C44.9235508,4.7589475 43.3039942,4.26013219 41.6844375,4.26013219 C40.5801944,4.26013219 39.7704161,4.42640396 39.2551026,4.7589475 C38.6661729,5.09149104 38.4453243,5.59030636 38.4453243,6.25539344 C38.4453243,6.75420875 38.6661729,7.0867523 39.034254,7.33615995 C39.402335,7.58556761 39.9176485,7.6687035 40.5065782,7.75183938 C41.0955079,7.83497527 41.7580537,7.91811115 42.4942158,8.00124704 C43.230378,8.08438292 43.9665401,8.16751881 44.7763184,8.33379058 C45.5124805,8.50006235 46.2486426,8.74947001 46.9111885,9.08201355 C47.5737343,9.49769298 48.0890478,9.99650829 48.4571289,10.7447313 C48.8252099,11.4929542 49.0460585,12.5737207 49.0460585,13.820759 C49.0460585,15.8991562 48.3835127,17.478738 47.0584209,18.5595045 C45.6597129,19.7234069 43.6720752,20.2222222 41.1691241,20.2222222 L41.1691241,20.2222222 Z"></path>
                                <g transform="translate(50.442432, 0.000000)">
                                    <path d="M1.94516103,9.83023652 C0.668867648,10.8278671 0.0307209568,12.2411772 0.0307209568,14.1533026 C0.0307209568,16.2316997 0.668867648,17.7281457 1.94516103,18.7257763 C3.22145441,19.7234069 5.04473067,20.2222222 7.50615362,20.2222222 C8.41779175,20.2222222 9.32942988,20.1390863 10.1499042,19.9728146 C10.6968871,19.8065428 11.2438699,19.640271 11.699689,19.3908634 L11.699689,16.2316997 C10.8792147,16.4811074 9.78524894,16.6473791 8.41779175,16.6473791 C7.14149836,16.6473791 6.22986024,16.4811074 5.59171355,16.0654279 C4.95356685,15.6497485 4.68007542,15.0677973 4.68007542,14.2364385 C4.68007542,13.4882155 4.95356685,12.9062643 5.40938592,12.4905849 C5.86520498,12.0749054 6.6856793,11.9086337 7.59731743,11.9086337 L11.7908528,11.9086337 L11.7908528,8.41692647 L7.59731743,8.41692647 C5.04473067,8.33379058 3.22145441,8.83260589 1.94516103,9.83023652 L1.94516103,9.83023652 Z"></path>
                                    <path d="M13.5508726,1.93232739 C12.1908573,0.685289105 10.3508367,0.0202020202 7.95080977,0.0202020202 C6.51079362,0.0202020202 5.15077837,0.269609677 3.95076491,0.768424991 C2.75075146,1.2672403 1.79074069,1.93232739 1.07073262,2.84682213 L3.95076491,5.3408987 C5.07077747,4.42640396 6.43079272,4.01072453 7.95080977,4.01072453 C9.07082232,4.01072453 9.95083219,4.34326807 10.5908394,4.92521927 C11.2308465,5.50717047 11.5508501,6.42166521 11.5508501,7.50243172 L11.5508501,20.2222222 L15.550895,20.2222222 L15.550895,7.33615995 C15.550895,5.00835516 14.9108878,3.17936567 13.5508726,1.93232739 L13.5508726,1.93232739 Z"></path>
                                </g>
                                <g transform="translate(67.175739, 0.000000)">
                                    <path d="M1.99195282,9.83023652 C0.715659438,10.8278671 0.0775127463,12.2411772 0.0775127463,14.1533026 C0.0775127463,16.2316997 0.715659438,17.7281457 1.99195282,18.7257763 C3.2682462,19.7234069 5.09152246,20.2222222 7.55294541,20.2222222 C8.46458354,20.2222222 9.37622167,20.1390863 10.196696,19.9728146 C10.7436789,19.8065428 11.2906617,19.640271 11.7464808,19.3908634 L11.7464808,16.2316997 C10.9260065,16.4811074 9.83204073,16.6473791 8.46458354,16.6473791 C7.18829015,16.6473791 6.27665203,16.4811074 5.63850534,16.0654279 C5.00035864,15.6497485 4.72686721,15.0677973 4.72686721,14.2364385 C4.72686721,13.4882155 5.00035864,12.9062643 5.45617771,12.4905849 C5.91199677,12.0749054 6.73247109,11.9086337 7.64410922,11.9086337 L11.8376446,11.9086337 L11.8376446,8.41692647 L7.64410922,8.41692647 C5.09152246,8.33379058 3.2682462,8.83260589 1.99195282,9.83023652 L1.99195282,9.83023652 Z"></path>
                                    <path d="M13.5976643,1.93232739 C12.2376491,0.685289105 10.3976285,0.0202020202 7.99760156,0.0202020202 C6.55758541,0.0202020202 5.19757016,0.269609677 3.9975567,0.768424991 C2.79754325,1.2672403 1.83753248,1.93232739 1.11752441,2.84682213 L3.9975567,5.3408987 C5.11756926,4.42640396 6.47758451,4.01072453 7.99760156,4.01072453 C9.11761411,4.01072453 9.99762398,4.34326807 10.6376312,4.92521927 C11.2776383,5.50717047 11.5976419,6.42166521 11.5976419,7.50243172 L11.5976419,20.2222222 L15.5976868,20.2222222 L15.5976868,7.33615995 C15.5976868,5.00835516 14.9576796,3.17936567 13.5976643,1.93232739 L13.5976643,1.93232739 Z"></path>
                                </g>
                                <g transform="translate(82.777324, 0.000000)">
                                    <path d="M0.0510451867,0.273577526 L6.12668985,0.273577526 L6.12668985,20.2222222 L1.7526408,20.2222222 L1.7526408,2.04750192 C1.7526408,2.04750192 1.70381407,1.56177128 1.17802102,1.01362864 C0.652227982,0.465486001 0.0510451867,0.273577526 0.0510451867,0.273577526 L0.0510451867,0.273577526 Z"></path>
                                    <path d="M15.3911937,2.13166457 C14.1367797,0.695870036 12.4343606,0.0202020202 10.1047345,0.0202020202 C8.76071938,0.0202020202 7.59590632,0.358036028 6.61029527,1.03370404 C6.43109326,1.11816255 6.25189125,1.37153805 6.07268924,1.45599655 L6.07268924,5.08771214 C6.69989627,4.66541963 7.41670431,4.41204412 8.40231536,4.41204412 C9.65672943,4.41204412 10.6423405,4.74987813 11.2695475,5.42554615 C11.8967545,6.10121416 12.2551586,7.03025768 12.2551586,8.21267671 L12.2551586,20.2222222 L17.0936128,20.2222222 L17.0936128,8.12821821 C17.2728148,5.51000465 16.6456078,3.4830006 15.3911937,2.13166457 L15.3911937,2.13166457 Z"></path>
                                </g>
                            </g>
                        </g>
                    </g>
                </g>
            </g>
        </g>
    </g>
</svg>