<?xml version="1.0" encoding="UTF-8"?>
<svg width="128px" height="35px" viewBox="0 0 128 35" version="1.1" xmlns="http://www.w3.org/2000/svg" xmlns:xlink="http://www.w3.org/1999/xlink">
    <!-- Generator: Sketch 61.2 (89653) - https://sketch.com -->
    <title>Macys_logo</title>
    <desc>Created with Sketch.</desc>
    <g id="Page-1" stroke="none" stroke-width="1" fill="none" fill-rule="evenodd">
        <g id="Light" transform="translate(-764.000000, -145.000000)" fill-rule="nonzero">
            <g id="Macys_logo" transform="translate(764.000000, 145.000000)">
                <polygon id="Path" fill="#E22130" points="14.5261261 0 11.1166667 10.6730038 0 10.6730038 8.97432432 17.2737643 5.60405405 28 14.5261261 21.3992395 23.4873874 28 20.0779279 17.2737643 29 10.6730038 17.9355856 10.6730038"></polygon>
                <g id="Group" transform="translate(32.000000, 2.000000)" fill="#FFFFFF">
                    <path d="M26.797861,6.95357143 C26.1304813,6.27261905 25.4117647,5.775 24.5005348,5.48690476 C23.6406417,5.14642857 22.626738,5.00238095 21.5358289,5.00238095 C20.4320856,5.00238095 19.431016,5.19880952 18.4171123,5.64404762 C17.4160428,6.08928571 16.5946524,6.71785714 15.9272727,7.39880952 L15.8759358,7.45119048 C15.542246,7.84404762 15.2470588,8.23690476 15.0160428,8.66904762 C14.8235294,9.06190476 14.631016,9.40238095 14.5411765,9.69047619 C14.4513369,9.49404762 14.2973262,9.15357143 14.1048128,8.81309524 C13.771123,8.17142857 13.4759358,7.68690476 13.2449198,7.49047619 C12.5775401,6.7047619 11.8074866,6.16785714 10.8064171,5.73571429 C9.80534759,5.29047619 8.75294118,5.09404762 7.54652406,5.09404762 C6.77647059,5.09404762 5.67272727,5.18571429 4.47914439,5.775 C3.09304813,6.45595238 1.93796791,7.5297619 1.12941176,9.10119048 L1.12941176,5.59166667 L0.0256684492,5.59166667 L0.0256684492,25.1821429 L1.12941176,25.1821429 L1.12941176,14.0380952 C1.12941176,12.7678571 1.27058824,11.6940476 1.5657754,10.7119048 C1.84812834,9.7297619 2.28449198,8.99642857 2.86203209,8.26309524 C3.3368984,7.58214286 4.05561497,7.0452381 4.87700535,6.7047619 C5.6855615,6.31190476 6.55828877,6.11547619 7.45668449,6.16785714 C8.56042781,6.2202381 9.51016043,6.41666667 10.3828877,6.80952381 C11.1914439,7.20238095 11.8716578,7.79166667 12.4363636,8.47261905 C12.9112299,9.15357143 13.2449198,9.74285714 13.4374332,10.4238095 C13.7197861,11.2488095 13.8224599,12.2309524 13.8224599,13.6059524 L13.8224599,25.1428571 L14.9262032,25.1428571 L14.9262032,14.1035714 C14.9262032,12.7416667 14.9775401,11.6154762 15.2085561,10.6857143 C15.4524064,9.80833333 15.7860963,9.12738095 16.4534759,8.23690476 C17.031016,7.45119048 17.7497326,6.91428571 18.7508021,6.52142857 C19.5593583,6.23333333 20.4705882,6.03690476 21.3304813,6.03690476 C22.2930481,6.03690476 23.1016043,6.18095238 23.8716578,6.48214286 C24.6417112,6.78333333 25.2064171,7.21547619 25.7454545,7.75238095 C26.4128342,8.43333333 26.9005348,9.27142857 27.1828877,10.3452381 C27.5165775,11.4190476 27.657754,12.6369048 27.657754,14.1559524 L27.657754,25.1428571 L28.7614973,25.1428571 L28.9540107,14.1035714 C28.9540107,12.4928571 28.7614973,11.0785714 28.3764706,9.9 C28.0427807,8.72142857 27.5550802,7.68690476 26.797861,6.95357143 Z" id="Path"></path>
                    <path d="M48.5775401,10.5678571 C48,9.20595238 46.8962567,7.83095238 45.4588235,6.84880952 C43.7775401,5.6702381 41.7754011,5.09404762 39.6705882,5.09404762 C35.8459893,5.09404762 33.4973262,6.84880952 32.1497326,8.36785714 C30.5197861,10.227381 29.5700535,12.7678571 29.5700535,15.3607143 C29.5700535,17.9535714 30.5326203,20.4940476 32.1497326,22.3535714 C33.4459893,23.8202381 35.8331551,25.627381 39.6705882,25.627381 C41.6342246,25.627381 43.4053476,25.1428571 44.9839572,24.2130952 C46.4727273,23.2309524 47.6663102,21.9607143 48.5775401,20.2583333 L48.5775401,25.1952381 L49.6812834,25.1952381 L49.6812834,5.64404762 L48.5775401,5.64404762 L48.5775401,10.5678571 Z M47.9614973,11.6940476 C48.1540107,12.2309524 48.3465241,12.7678571 48.4363636,13.3047619 C48.5775401,13.8940476 48.628877,14.522619 48.628877,15.0595238 C48.6802139,15.7011905 48.628877,16.277381 48.5390374,16.8142857 C48.4491979,17.4559524 48.2951872,17.9928571 48.1026738,18.477381 C47.4737968,20.2845238 46.3828877,21.8428571 44.8941176,22.877381 C43.4566845,23.9511905 41.6342246,24.4880952 39.773262,24.4880952 C37.0010695,24.4880952 34.7037433,23.4666667 33.0224599,21.6071429 C31.5850267,19.9440476 30.6737968,17.652381 30.6737968,15.2559524 C30.6737968,12.6630952 31.6363636,10.3714286 33.2534759,8.65595238 C34.9347594,6.99285714 37.1807487,6.02380952 39.6705882,6.02380952 C41.4930481,6.02380952 43.2641711,6.56071429 44.7016043,7.49047619 C46.1903743,8.61666667 47.3326203,10.0309524 47.9614973,11.6940476 Z" id="Shape"></path>
                    <path d="M53.9037433,8.56428571 C54.9048128,7.63452381 55.9187166,7.0452381 56.9197861,6.61309524 C57.9208556,6.2202381 59.0245989,5.97142857 60.3721925,5.97142857 L60.4620321,5.97142857 C62.0919786,5.97142857 63.7604278,6.45595238 65.1593583,7.29404762 C66.7893048,8.36785714 68.0342246,9.83452381 68.7016043,11.6940476 L68.7529412,11.7857143 L69.997861,11.7857143 L69.9080214,11.5892857 C69.1379679,9.38928571 67.7005348,7.58214286 65.7882353,6.41666667 C64.2096257,5.43452381 62.2973262,4.95 60.4235294,4.95 C57.6513369,4.95 55.1101604,6.02380952 53.2363636,7.93571429 C51.3625668,9.84761905 50.3101604,12.4797619 50.3101604,15.3083333 C50.3101604,17.9404762 51.3112299,20.4809524 52.9411765,22.3404762 C54.8149733,24.4357143 57.4459893,25.5619048 60.6032086,25.5619048 C62.6566845,25.5619048 64.6716578,24.9202381 66.3016043,23.7547619 C67.9315508,22.5892857 69.1764706,20.9654762 69.8951872,19.0142857 L69.9850267,18.8178571 L68.740107,18.8178571 L68.6887701,18.9095238 C68.2139037,20.3238095 67.2,21.6988095 65.8652406,22.6678571 C64.3379679,23.8857143 62.3743316,24.475 60.3593583,24.475 C59.1657754,24.475 58.0106952,24.2261905 56.9069519,23.7940476 C55.8032086,23.3095238 54.8919786,22.6678571 54.0320856,21.8821429 C53.1721925,21.0047619 52.5433155,20.022619 52.0684492,18.8571429 C51.5935829,17.7309524 51.3497326,16.4607143 51.3497326,15.1904762 C51.3497326,13.9202381 51.6320856,12.597619 52.0684492,11.4321429 C52.4663102,10.3321429 53.1336898,9.35 53.9037433,8.56428571 Z M66.8278075,8.47261905 C67.6877005,9.29761905 68.4064171,10.3845238 68.8812834,11.6547619 L68.8812834,11.6547619 C68.4064171,10.4238095 67.6877005,9.40238095 66.8278075,8.47261905 Z" id="Shape"></path>
                    <path d="M85.5016043,5.53928571 L84.2566845,5.53928571 L84.2053476,5.63095238 C84.2053476,5.72261905 82.3315508,10.175 80.4705882,14.6666667 L76.7871658,23.5059524 L73.2962567,14.6666667 C71.0502674,8.8 69.7540107,5.6702381 69.7540107,5.63095238 L69.7026738,5.53928571 L68.457754,5.53928571 L76.1197861,25.0380952 L72.6673797,32.947619 L73.9122995,32.947619 L73.9636364,32.8559524 C73.9636364,32.8559524 74.0534759,32.6071429 74.2074866,32.2142857 C74.7850267,30.852381 76.3636364,27.0809524 78.1860963,22.8380952 C78.6609626,21.7119048 79.1486631,20.5464286 79.6748663,19.3678571 L84.1796791,8.76071429 C84.9497326,6.95357143 85.4245989,5.775 85.4245989,5.73571429 L85.5016043,5.53928571 Z" id="Path"></path>
                    <path d="M94.1262032,15.6488095 C93.0737968,14.8630952 91.7775401,14.4702381 90.4812834,14.1821429 L90.340107,14.1297619 C88.8513369,13.6845238 87.9016043,13.252381 87.2727273,12.7678571 C86.5540107,12.1261905 86.168984,11.3535714 86.1176471,10.175 C86.1176471,9.63809524 86.168984,9.10119048 86.3614973,8.65595238 C86.5026738,8.17142857 86.797861,7.77857143 87.1315508,7.38571429 C87.5165775,6.94047619 87.9914439,6.65238095 88.4663102,6.40357143 C89.0438503,6.1547619 89.6213904,6.06309524 90.2374332,6.06309524 L90.3272727,6.06309524 C90.9048128,6.06309524 91.431016,6.1547619 91.8545455,6.35119048 C92.3294118,6.54761905 92.7657754,6.83571429 93.0994652,7.17619048 C93.4331551,7.51666667 93.7283422,7.96190476 93.9080214,8.44642857 C94.1005348,8.93095238 94.1903743,9.46785714 94.1903743,10.0571429 L94.1903743,10.2011905 L95.2941176,10.2011905 L95.2941176,10.0833333 C95.2941176,8.66904762 94.7679144,7.39880952 93.9080214,6.46904762 C92.9967914,5.53928571 91.7518717,5.10714286 90.2245989,5.10714286 C88.8898396,5.10714286 87.5935829,5.55238095 86.631016,6.325 C85.5272727,7.2547619 85.0010695,8.57738095 85.0010695,10.1880952 C85.0524064,11.7071429 85.5786096,12.8202381 86.5283422,13.6583333 C87.5294118,14.4833333 88.8770053,14.9285714 90.2117647,15.2690476 C91.8417112,15.6619048 92.9839572,16.1988095 93.7026738,16.8797619 C94.4727273,17.6654762 94.8064171,18.5952381 94.857754,19.9047619 L94.857754,20.0488095 C94.857754,20.6904762 94.7679144,21.3190476 94.5240642,21.8035714 C94.2802139,22.3404762 93.997861,22.825 93.5614973,23.2178571 C93.1764706,23.6630952 92.6502674,24.0035714 92.1240642,24.2392857 C91.5465241,24.4880952 90.9304813,24.5797619 90.3016043,24.5797619 C88.915508,24.5797619 87.6705882,24.1345238 86.8106952,23.3095238 C85.9508021,22.4321429 85.5144385,21.2535714 85.4759358,19.8392857 L85.4759358,19.6952381 L84.3721925,19.747619 L84.3721925,19.9964286 C84.3721925,20.0488095 84.3721925,20.0880952 84.3721925,20.1404762 C84.3721925,20.8214286 84.513369,21.4630952 84.7572193,22.0916667 C85.0010695,22.7333333 85.3347594,23.3095238 85.8096257,23.7547619 C86.3871658,24.3440476 87.0545455,24.8285714 87.8245989,25.1166667 C88.5946524,25.4047619 89.4032086,25.6011905 90.3144385,25.6011905 C91.1229947,25.6011905 91.8930481,25.4047619 92.6117647,25.1166667 C93.3304813,24.7761905 93.9465241,24.3309524 94.4855615,23.7940476 C94.9604278,23.2571429 95.3967914,22.6154762 95.6406417,21.9345238 C95.9229947,21.2535714 96.0256684,20.5202381 95.9743316,19.7345238 C95.8973262,17.8488095 95.2684492,16.5392857 94.1262032,15.6488095 Z" id="Path"></path>
                    <polygon id="Path" points="84.8727273 4.07261905 86.168984 3.14285714 87.4652406 4.07261905 86.9390374 2.51428571 88.2737968 1.53214286 86.6951872 1.53214286 86.168984 0.0130952381 85.6941176 1.53214286 84.115508 1.53214286 85.3604278 2.51428571"></polygon>
                </g>
            </g>
        </g>
    </g>
</svg>