<?xml version="1.0" encoding="UTF-8"?>
<svg width="136px" height="35px" viewBox="0 0 136 35" version="1.1" xmlns="http://www.w3.org/2000/svg" xmlns:xlink="http://www.w3.org/1999/xlink">
    <!-- Generator: Sketch 61.2 (89653) - https://sketch.com -->
    <title>Macys_logo</title>
    <desc>Created with Sketch.</desc>
    <g id="Page-1" stroke="none" stroke-width="1" fill="none" fill-rule="evenodd">
        <g id="Light" transform="translate(-764.000000, -151.000000)" fill-rule="nonzero">
            <g id="Macys_logo" transform="translate(764.000000, 151.000000)">
                <polygon id="Path" fill="#E22130" points="14.5261261 0 11.1166667 10.6730038 0 10.6730038 8.97432432 17.2737643 5.60405405 28 14.5261261 21.3992395 23.4873874 28 20.0779279 17.2737643 29 10.6730038 17.9355856 10.6730038"></polygon>
                <g id="Group" transform="translate(32.000000, 2.000000)" fill="#FFFFFF">
                    <path d="M26.797861,6.95357143 C26.1304813,6.27261905 25.4117647,5.775 24.5005348,5.48690476 C23.6406417,5.14642857 22.626738,5.00238095 21.5358289,5.00238095 C20.4320856,5.00238095 19.431016,5.19880952 18.4171123,5.64404762 C17.4160428,6.08928571 16.5946524,6.71785714 15.9272727,7.39880952 L15.8759358,7.45119048 C15.542246,7.84404762 15.2470588,8.23690476 15.0160428,8.66904762 C14.8235294,9.06190476 14.631016,9.40238095 14.5411765,9.69047619 C14.4513369,9.49404762 14.2973262,9.15357143 14.1048128,8.81309524 C13.771123,8.17142857 13.4759358,7.68690476 13.2449198,7.49047619 C12.5775401,6.7047619 11.8074866,6.16785714 10.8064171,5.73571429 C9.80534759,5.29047619 8.75294118,5.09404762 7.54652406,5.09404762 C6.77647059,5.09404762 5.67272727,5.18571429 4.47914439,5.775 C3.09304813,6.45595238 1.93796791,7.5297619 1.12941176,9.10119048 L1.12941176,5.59166667 L0.0256684492,5.59166667 L0.0256684492,25.1821429 L1.12941176,25.1821429 L1.12941176,14.0380952 C1.12941176,12.7678571 1.27058824,11.6940476 1.5657754,10.7119048 C1.84812834,9.7297619 2.28449198,8.99642857 2.86203209,8.26309524 C3.3368984,7.58214286 4.05561497,7.0452381 4.87700535,6.7047619 C5.6855615,6.31190476 6.55828877,6.11547619 7.45668449,6.16785714 C8.56042781,6.2202381 9.51016043,6.41666667 10.3828877,6.80952381 C11.1914439,7.20238095 11.8716578,7.79166667 12.4363636,8.47261905 C12.9112299,9.15357143 13.2449198,9.74285714 13.4374332,10.4238095 C13.7197861,11.2488095 13.8224599,12.2309524 13.8224599,13.6059524 L13.8224599,25.1428571 L14.9262032,25.1428571 L14.9262032,14.1035714 C14.9262032,12.7416667 14.9775401,11.6154762 15.2085561,10.6857143 C15.4524064,9.80833333 15.7860963,9.12738095 16.4534759,8.23690476 C17.031016,7.45119048 17.7497326,6.91428571 18.7508021,6.52142857 C19.5593583,6.23333333 20.4705882,6.03690476 21.3304813,6.03690476 C22.2930481,6.03690476 23.1016043,6.18095238 23.8716578,6.48214286 C24.6417112,6.78333333 25.2064171,7.21547619 25.7454545,7.75238095 C26.4128342,8.43333333 26.9005348,9.27142857 27.1828877,10.3452381 C27.5165775,11.4190476 27.657754,12.6369048 27.657754,14.1559524 L27.657754,25.1428571 L28.7614973,25.1428571 L28.9540107,14.1035714 C28.9540107,12.4928571 28.7614973,11.0785714 28.3764706,9.9 C28.0427807,8.72142857 27.5550802,7.68690476 26.797861,6.95357143 Z" id="Path"></path>
                    <path d="M50.5775401,10.5678571 C50,9.20595238 48.8962567,7.83095238 47.4588235,6.84880952 C45.7775401,5.6702381 43.7754011,5.09404762 41.6705882,5.09404762 C37.8459893,5.09404762 35.4973262,6.84880952 34.1497326,8.36785714 C32.5197861,10.227381 31.5700535,12.7678571 31.5700535,15.3607143 C31.5700535,17.9535714 32.5326203,20.4940476 34.1497326,22.3535714 C35.4459893,23.8202381 37.8331551,25.627381 41.6705882,25.627381 C43.6342246,25.627381 45.4053476,25.1428571 46.9839572,24.2130952 C48.4727273,23.2309524 49.6663102,21.9607143 50.5775401,20.2583333 L50.5775401,25.1952381 L51.6812834,25.1952381 L51.6812834,5.64404762 L50.5775401,5.64404762 L50.5775401,10.5678571 Z M49.9614973,11.6940476 C50.1540107,12.2309524 50.3465241,12.7678571 50.4363636,13.3047619 C50.5775401,13.8940476 50.628877,14.522619 50.628877,15.0595238 C50.6802139,15.7011905 50.628877,16.277381 50.5390374,16.8142857 C50.4491979,17.4559524 50.2951872,17.9928571 50.1026738,18.477381 C49.4737968,20.2845238 48.3828877,21.8428571 46.8941176,22.877381 C45.4566845,23.9511905 43.6342246,24.4880952 41.773262,24.4880952 C39.0010695,24.4880952 36.7037433,23.4666667 35.0224599,21.6071429 C33.5850267,19.9440476 32.6737968,17.652381 32.6737968,15.2559524 C32.6737968,12.6630952 33.6363636,10.3714286 35.2534759,8.65595238 C36.9347594,6.99285714 39.1807487,6.02380952 41.6705882,6.02380952 C43.4930481,6.02380952 45.2641711,6.56071429 46.7016043,7.49047619 C48.1903743,8.61666667 49.3326203,10.0309524 49.9614973,11.6940476 Z" id="Shape"></path>
                    <path d="M57.9037433,8.56428571 C58.9048128,7.63452381 59.9187166,7.0452381 60.9197861,6.61309524 C61.9208556,6.2202381 63.0245989,5.97142857 64.3721925,5.97142857 L64.4620321,5.97142857 C66.0919786,5.97142857 67.7604278,6.45595238 69.1593583,7.29404762 C70.7893048,8.36785714 72.0342246,9.83452381 72.7016043,11.6940476 L72.7529412,11.7857143 L73.997861,11.7857143 L73.9080214,11.5892857 C73.1379679,9.38928571 71.7005348,7.58214286 69.7882353,6.41666667 C68.2096257,5.43452381 66.2973262,4.95 64.4235294,4.95 C61.6513369,4.95 59.1101604,6.02380952 57.2363636,7.93571429 C55.3625668,9.84761905 54.3101604,12.4797619 54.3101604,15.3083333 C54.3101604,17.9404762 55.3112299,20.4809524 56.9411765,22.3404762 C58.8149733,24.4357143 61.4459893,25.5619048 64.6032086,25.5619048 C66.6566845,25.5619048 68.6716578,24.9202381 70.3016043,23.7547619 C71.9315508,22.5892857 73.1764706,20.9654762 73.8951872,19.0142857 L73.9850267,18.8178571 L72.740107,18.8178571 L72.6887701,18.9095238 C72.2139037,20.3238095 71.2,21.6988095 69.8652406,22.6678571 C68.3379679,23.8857143 66.3743316,24.475 64.3593583,24.475 C63.1657754,24.475 62.0106952,24.2261905 60.9069519,23.7940476 C59.8032086,23.3095238 58.8919786,22.6678571 58.0320856,21.8821429 C57.1721925,21.0047619 56.5433155,20.022619 56.0684492,18.8571429 C55.5935829,17.7309524 55.3497326,16.4607143 55.3497326,15.1904762 C55.3497326,13.9202381 55.6320856,12.597619 56.0684492,11.4321429 C56.4663102,10.3321429 57.1336898,9.35 57.9037433,8.56428571 Z M70.8278075,8.47261905 C71.6877005,9.29761905 72.4064171,10.3845238 72.8812834,11.6547619 L72.8812834,11.6547619 C72.4064171,10.4238095 71.6877005,9.40238095 70.8278075,8.47261905 Z" id="Shape"></path>
                    <path d="M91.5016043,5.53928571 L90.2566845,5.53928571 L90.2053476,5.63095238 C90.2053476,5.72261905 88.3315508,10.175 86.4705882,14.6666667 L82.7871658,23.5059524 L79.2962567,14.6666667 C77.0502674,8.8 75.7540107,5.6702381 75.7540107,5.63095238 L75.7026738,5.53928571 L74.457754,5.53928571 L82.1197861,25.0380952 L78.6673797,32.947619 L79.9122995,32.947619 L79.9636364,32.8559524 C79.9636364,32.8559524 80.0534759,32.6071429 80.2074866,32.2142857 C80.7850267,30.852381 82.3636364,27.0809524 84.1860963,22.8380952 C84.6609626,21.7119048 85.1486631,20.5464286 85.6748663,19.3678571 L90.1796791,8.76071429 C90.9497326,6.95357143 91.4245989,5.775 91.4245989,5.73571429 L91.5016043,5.53928571 Z" id="Path"></path>
                    <path d="M102.126203,15.6488095 C101.073797,14.8630952 99.7775401,14.4702381 98.4812834,14.1821429 L98.340107,14.1297619 C96.8513369,13.6845238 95.9016043,13.252381 95.2727273,12.7678571 C94.5540107,12.1261905 94.168984,11.3535714 94.1176471,10.175 C94.1176471,9.63809524 94.168984,9.10119048 94.3614973,8.65595238 C94.5026738,8.17142857 94.797861,7.77857143 95.1315508,7.38571429 C95.5165775,6.94047619 95.9914439,6.65238095 96.4663102,6.40357143 C97.0438503,6.1547619 97.6213904,6.06309524 98.2374332,6.06309524 L98.3272727,6.06309524 C98.9048128,6.06309524 99.431016,6.1547619 99.8545455,6.35119048 C100.329412,6.54761905 100.765775,6.83571429 101.099465,7.17619048 C101.433155,7.51666667 101.728342,7.96190476 101.908021,8.44642857 C102.100535,8.93095238 102.190374,9.46785714 102.190374,10.0571429 L102.190374,10.2011905 L103.294118,10.2011905 L103.294118,10.0833333 C103.294118,8.66904762 102.767914,7.39880952 101.908021,6.46904762 C100.996791,5.53928571 99.7518717,5.10714286 98.2245989,5.10714286 C96.8898396,5.10714286 95.5935829,5.55238095 94.631016,6.325 C93.5272727,7.2547619 93.0010695,8.57738095 93.0010695,10.1880952 C93.0524064,11.7071429 93.5786096,12.8202381 94.5283422,13.6583333 C95.5294118,14.4833333 96.8770053,14.9285714 98.2117647,15.2690476 C99.8417112,15.6619048 100.983957,16.1988095 101.702674,16.8797619 C102.472727,17.6654762 102.806417,18.5952381 102.857754,19.9047619 L102.857754,20.0488095 C102.857754,20.6904762 102.767914,21.3190476 102.524064,21.8035714 C102.280214,22.3404762 101.997861,22.825 101.561497,23.2178571 C101.176471,23.6630952 100.650267,24.0035714 100.124064,24.2392857 C99.5465241,24.4880952 98.9304813,24.5797619 98.3016043,24.5797619 C96.915508,24.5797619 95.6705882,24.1345238 94.8106952,23.3095238 C93.9508021,22.4321429 93.5144385,21.2535714 93.4759358,19.8392857 L93.4759358,19.6952381 L92.3721925,19.747619 L92.3721925,19.9964286 C92.3721925,20.0488095 92.3721925,20.0880952 92.3721925,20.1404762 C92.3721925,20.8214286 92.513369,21.4630952 92.7572193,22.0916667 C93.0010695,22.7333333 93.3347594,23.3095238 93.8096257,23.7547619 C94.3871658,24.3440476 95.0545455,24.8285714 95.8245989,25.1166667 C96.5946524,25.4047619 97.4032086,25.6011905 98.3144385,25.6011905 C99.1229947,25.6011905 99.8930481,25.4047619 100.611765,25.1166667 C101.330481,24.7761905 101.946524,24.3309524 102.485561,23.7940476 C102.960428,23.2571429 103.396791,22.6154762 103.640642,21.9345238 C103.922995,21.2535714 104.025668,20.5202381 103.974332,19.7345238 C103.897326,17.8488095 103.268449,16.5392857 102.126203,15.6488095 Z" id="Path"></path>
                    <polygon id="Path" points="86.8727273 4.07261905 88.168984 3.14285714 89.4652406 4.07261905 88.9390374 2.51428571 90.2737968 1.53214286 88.6951872 1.53214286 88.168984 0.0130952381 87.6941176 1.53214286 86.115508 1.53214286 87.3604278 2.51428571"></polygon>
                </g>
            </g>
        </g>
    </g>
</svg>